<svg width="33" height="33" viewBox="0 0 33 33" fill="none" xmlns="http://www.w3.org/2000/svg">
<path d="M6.86688 5.37128C6.51502 5.37128 6.14707 5.48954 5.87853 5.75767C5.3416 6.29529 5.3416 7.19728 5.87853 7.7349L14.5153 16.3713L5.87853 25.0077C5.3416 25.5453 5.3416 26.4473 5.87853 26.9849C6.41561 27.5212 7.31816 27.5212 7.85523 26.9849L16.4919 18.3486L25.1285 26.9849C25.6656 27.5212 26.5682 27.5212 27.1052 26.9849C27.6422 26.4473 27.6422 25.5453 27.1052 25.0077L18.4684 16.3713L27.1052 7.7349C27.6422 7.19728 27.6422 6.29529 27.1052 5.75767C26.8367 5.48954 26.4686 5.37128 26.1169 5.37128C25.765 5.37128 25.3972 5.48954 25.1285 5.75767L16.4919 14.3941L7.85523 5.75767C7.5867 5.48954 7.21875 5.37128 6.86688 5.37128Z" fill="#EABDBD"/>
</svg>
